<svg width="64" height="64" viewBox="0 0 64 64" fill="none" xmlns="http://www.w3.org/2000/svg">
    <path
        d="M32 52.6673C43.4143 52.6673 52.6674 43.4142 52.6674 32C52.6674 20.5857 43.4143 11.3326 32 11.3326C20.5858 11.3326 11.3327 20.5857 11.3327 32C11.3327 43.4142 20.5858 52.6673 32 52.6673Z"
        fill="white" />
    <path
        d="M32 12.4426C35.868 12.4426 39.6492 13.5897 42.8654 15.7386C46.0816 17.8876 48.5883 20.9421 50.0686 24.5157C51.5488 28.0893 51.9361 32.0217 51.1815 35.8154C50.4269 39.6091 48.5642 43.0939 45.8291 45.8291C43.0939 48.5642 39.6092 50.4269 35.8154 51.1815C32.0217 51.9361 28.0893 51.5488 24.5157 50.0686C20.9421 48.5883 17.8876 46.0816 15.7387 42.8654C13.5897 39.6492 12.4426 35.868 12.4426 32C12.4426 26.813 14.5031 21.8386 18.1709 18.1708C21.8386 14.5031 26.813 12.4426 32 12.4426V12.4426ZM32 10.2279C27.6939 10.2279 23.4845 11.5048 19.9041 13.8972C16.3237 16.2895 13.5331 19.6898 11.8852 23.6682C10.2373 27.6465 9.80618 32.0241 10.6463 36.2475C11.4863 40.4708 13.5599 44.3502 16.6048 47.3951C19.6497 50.44 23.5291 52.5136 27.7524 53.3537C31.9758 54.1937 36.3534 53.7626 40.3318 52.1147C44.3101 50.4668 47.7104 47.6763 50.1028 44.0959C52.4951 40.5155 53.772 36.3061 53.772 32C53.765 26.2278 51.4689 20.6941 47.3874 16.6125C43.3059 12.531 37.7721 10.2349 32 10.2279V10.2279Z"
        fill="#008481" />
    <g style="mix-blend-mode:multiply" opacity="0.15">
        <path
            d="M42.1593 16.5497C44.4854 20.1056 45.5166 24.3538 45.0795 28.5805C44.6425 32.8071 42.7637 36.7544 39.7591 39.759C36.7545 42.7637 32.8072 44.6424 28.5805 45.0795C24.3539 45.5166 20.1056 44.4854 16.5497 42.1592C18.0556 44.4611 20.0558 46.3983 22.4048 47.8296C24.7538 49.261 27.3924 50.1505 30.1285 50.4335C32.8646 50.7164 35.6294 50.3857 38.2216 49.4653C40.8137 48.5449 43.168 47.0581 45.1131 45.113C47.0581 43.168 48.545 40.8137 49.4653 38.2215C50.3857 35.6293 50.7165 32.8645 50.4335 30.1284C50.1506 27.3923 49.261 24.7537 47.8297 22.4047C46.3983 20.0558 44.4612 18.0555 42.1593 16.5497V16.5497Z"
            fill="#00C1BF" />
    </g>
    <path
        d="M31.4228 38.5068H34.0868V22.7891H31.667L26.7607 26.7407L28.3148 28.5833L31.4228 26.0303V38.5068Z"
        fill="#2CA01C" />
</svg>