<svg width="64" height="64" viewBox="0 0 64 64" fill="none" xmlns="http://www.w3.org/2000/svg">
    <path
        d="M32 52.6673C43.4142 52.6673 52.6673 43.4142 52.6673 32C52.6673 20.5857 43.4142 11.3326 32 11.3326C20.5857 11.3326 11.3326 20.5857 11.3326 32C11.3326 43.4142 20.5857 52.6673 32 52.6673Z"
        fill="white" />
    <path
        d="M32 12.4426C35.868 12.4426 39.6492 13.5897 42.8654 15.7386C46.0816 17.8876 48.5883 20.9421 50.0686 24.5157C51.5488 28.0893 51.9361 32.0217 51.1815 35.8154C50.4269 39.6091 48.5642 43.0939 45.8291 45.8291C43.0939 48.5642 39.6092 50.4269 35.8154 51.1815C32.0217 51.9361 28.0893 51.5488 24.5157 50.0686C20.9421 48.5883 17.8876 46.0816 15.7387 42.8654C13.5897 39.6492 12.4426 35.868 12.4426 32C12.4426 26.813 14.5031 21.8386 18.1709 18.1708C21.8386 14.5031 26.813 12.4426 32 12.4426ZM32 10.2279C27.6939 10.2279 23.4845 11.5048 19.9041 13.8972C16.3237 16.2895 13.5331 19.6898 11.8852 23.6682C10.2373 27.6465 9.80618 32.0241 10.6463 36.2475C11.4863 40.4708 13.5599 44.3502 16.6048 47.3951C19.6497 50.44 23.5291 52.5136 27.7524 53.3537C31.9758 54.1937 36.3534 53.7626 40.3318 52.1147C44.3101 50.4668 47.7104 47.6763 50.1028 44.0959C52.4951 40.5155 53.772 36.3061 53.772 32C53.765 26.2278 51.4689 20.6941 47.3874 16.6125C43.3059 12.531 37.7721 10.2349 32 10.2279Z"
        fill="#008481" />
    <g style="mix-blend-mode:multiply" opacity="0.15">
        <path
            d="M42.1592 16.5497C44.4854 20.1056 45.5166 24.3538 45.0795 28.5805C44.6424 32.8071 42.7637 36.7544 39.759 39.759C36.7544 42.7637 32.8071 44.6424 28.5805 45.0795C24.3538 45.5166 20.1056 44.4854 16.5497 42.1592C18.0555 44.4611 20.0558 46.3983 22.4047 47.8296C24.7537 49.261 27.3923 50.1505 30.1284 50.4335C32.8645 50.7164 35.6293 50.3857 38.2215 49.4653C40.8137 48.5449 43.168 47.0581 45.113 45.113C47.0581 43.168 48.5449 40.8137 49.4653 38.2215C50.3857 35.6293 50.7164 32.8645 50.4335 30.1284C50.1505 27.3923 49.261 24.7537 47.8296 22.4047C46.3983 20.0558 44.4611 18.0555 42.1592 16.5497Z"
            fill="#00C1BF" />
    </g>
    <path
        d="M29.9353 31.3805H30.6014C32.2664 31.3805 34.4198 32.0021 34.4198 34.0445C34.4198 35.9315 32.9102 36.6419 31.5338 36.6419C29.8687 36.6419 28.7809 35.6651 28.4035 34.4219L25.9171 35.1989C26.7607 37.8185 28.9807 38.9064 31.6226 38.9064C34.2866 38.9064 37.106 37.3301 37.106 34.0667C37.106 32.1353 35.774 30.6701 33.8648 30.2927V30.2483C35.5742 29.8265 36.6842 28.3835 36.6842 26.6962C36.6842 23.8768 34.3754 22.3894 31.6226 22.3894C29.1139 22.3894 27.0493 23.8768 26.4943 25.9858L29.0029 26.6296C29.3137 25.4308 30.224 24.6094 31.5116 24.6094C32.8436 24.6094 33.998 25.453 33.998 26.8738C33.998 28.8053 32.222 29.2493 30.6458 29.2493H29.9353V31.3805Z"
        fill="#2CA01C" />
</svg>